<?xml version="1.0" encoding="UTF-8"?>
<!DOCTYPE svg PUBLIC "-//W3C//DTD SVG 1.1//EN" "http://www.w3.org/Graphics/SVG/1.1/DTD/svg11.dtd">
<svg xmlns="http://www.w3.org/2000/svg" version="1.1" width="639px" height="639px" style="shape-rendering:geometricPrecision; text-rendering:geometricPrecision; image-rendering:optimizeQuality; fill-rule:evenodd; clip-rule:evenodd" xmlns:xlink="http://www.w3.org/1999/xlink">
<g><path style="opacity:0.994" fill="#1a171b" d="M 391.5,32.5 C 424.144,28.9847 451.311,39.318 473,63.5C 484.101,78.8056 489.601,95.9722 489.5,115C 486.521,142.185 482.521,169.185 477.5,196C 533.281,229.03 561.614,278.196 562.5,343.5C 558.674,420.98 527.674,485.147 469.5,536C 429.854,570.819 383.854,592.819 331.5,602C 287.713,609.09 245.713,603.423 205.5,585C 162.731,561.337 134.898,525.837 122,478.5C 106.824,416.13 91.4907,353.796 76,291.5C 69.3587,235.272 91.5254,195.105 142.5,171C 151.169,167.554 160.003,164.721 169,162.5C 178.506,126.321 200.34,100.488 234.5,85C 257.142,74.1687 280.809,70.6687 305.5,74.5C 329.188,50.3227 357.855,36.3227 391.5,32.5 Z"/></g>
<g><path style="opacity:1" fill="#f9d214" d="M 395.5,97.5 C 403.499,96.7821 411.166,97.9488 418.5,101C 422.696,104.732 424.362,109.398 423.5,115C 417.49,157.218 411.156,199.385 404.5,241.5C 445.964,245.802 474.798,267.135 491,305.5C 497.033,321.667 499.033,338.333 497,355.5C 492.502,393.028 478.669,426.528 455.5,456C 440.608,455.892 427.275,451.225 415.5,442C 407.461,435.628 400.461,428.295 394.5,420C 411.779,398.727 416.945,374.893 410,348.5C 402.974,333.816 391.474,324.65 375.5,321C 354.525,317.616 334.858,321.282 316.5,332C 290.087,347.656 273.587,370.49 267,400.5C 265.999,443.826 287.165,463.326 330.5,459C 339.905,457.198 348.905,454.198 357.5,450C 363.411,450.972 369.077,452.972 374.5,456C 390.8,465.966 404.133,478.966 414.5,495C 369.638,532.049 318.305,545.715 260.5,536C 219.067,524.9 193.567,498.4 184,456.5C 170.329,401.151 156.663,345.817 143,290.5C 134.448,257.123 146.948,235.956 180.5,227C 196.167,224.666 206,231.166 210,246.5C 216.001,270.508 222.001,294.508 228,318.5C 231.703,315.133 235.036,311.466 238,307.5C 237.348,265.959 235.515,224.459 232.5,183C 232.608,174.96 235.108,167.794 240,161.5C 255.303,143.756 274.47,136.59 297.5,140C 301.302,142.087 303.802,145.254 305,149.5C 307.1,184.828 308.933,220.161 310.5,255.5C 316.262,252.961 322.262,250.961 328.5,249.5C 334.029,209.325 340.529,169.325 348,129.5C 354.768,116.065 365.268,106.899 379.5,102C 384.956,100.473 390.289,98.9732 395.5,97.5 Z"/></g>
</svg>
