<?xml version="1.0" encoding="UTF-8"?>
<!DOCTYPE svg PUBLIC "-//W3C//DTD SVG 1.1//EN" "http://www.w3.org/Graphics/SVG/1.1/DTD/svg11.dtd">
<svg xmlns="http://www.w3.org/2000/svg" version="1.1" width="64px" height="64px" style="shape-rendering:geometricPrecision; text-rendering:geometricPrecision; image-rendering:optimizeQuality; fill-rule:evenodd; clip-rule:evenodd" xmlns:xlink="http://www.w3.org/1999/xlink">
<g><path style="opacity:0.818" fill="#c128ff" d="M 16.5,6.5 C 14.7354,7.46138 12.7354,7.79472 10.5,7.5C 9.50278,7.47008 8.83611,7.97008 8.5,9C 9.23348,10.7659 9.56681,12.5992 9.5,14.5C 8.83333,14.5 8.16667,14.5 7.5,14.5C 5.98864,11.4557 5.32198,8.12237 5.5,4.5C 9.24883,4.75056 12.9155,5.41723 16.5,6.5 Z"/></g>
<g><path style="opacity:0.79" fill="#b830ff" d="M 16.5,6.5 C 22.6431,8.32546 28.6431,10.3255 34.5,12.5C 31.1933,11.9492 27.8599,11.6159 24.5,11.5C 23.5,11.5 22.5,11.5 21.5,11.5C 21.1667,11.5 20.8333,11.5 20.5,11.5C 19.8333,11.1667 19.1667,10.8333 18.5,10.5C 18.1667,10.5 17.8333,10.5 17.5,10.5C 15.2209,9.3485 12.8876,8.3485 10.5,7.5C 12.7354,7.79472 14.7354,7.46138 16.5,6.5 Z"/></g>
<g><path style="opacity:0.865" fill="#d895ff" d="M 10.5,7.5 C 12.8876,8.3485 15.2209,9.3485 17.5,10.5C 17.5,10.8333 17.5,11.1667 17.5,11.5C 16.8333,11.5 16.5,11.8333 16.5,12.5C 15.8333,12.5 15.5,12.8333 15.5,13.5C 14.8333,13.5 14.5,13.8333 14.5,14.5C 13.8333,14.5 13.5,14.8333 13.5,15.5C 12.8333,15.5 12.5,15.8333 12.5,16.5C 11.8333,16.5 11.5,16.8333 11.5,17.5C 10.8333,16.5 10.1667,15.5 9.5,14.5C 9.56681,12.5992 9.23348,10.7659 8.5,9C 8.83611,7.97008 9.50278,7.47008 10.5,7.5 Z"/></g>
<g><path style="opacity:0.856" fill="#d198ff" d="M 18.5,10.5 C 19.1667,10.8333 19.8333,11.1667 20.5,11.5C 20.2322,13.099 20.5655,14.4324 21.5,15.5C 21.2322,17.099 21.5655,18.4324 22.5,19.5C 21.8166,21.1765 20.4832,21.8432 18.5,21.5C 17.791,20.596 16.791,20.2627 15.5,20.5C 14.791,19.596 13.791,19.2627 12.5,19.5C 12.1667,19.5 11.8333,19.5 11.5,19.5C 11.5,18.8333 11.5,18.1667 11.5,17.5C 12.1667,17.5 12.5,17.1667 12.5,16.5C 13.1667,16.5 13.5,16.1667 13.5,15.5C 14.1667,15.5 14.5,15.1667 14.5,14.5C 15.1667,14.5 15.5,14.1667 15.5,13.5C 16.1667,13.5 16.5,13.1667 16.5,12.5C 17.1667,12.5 17.5,12.1667 17.5,11.5C 18.1667,11.5 18.5,11.1667 18.5,10.5 Z"/></g>
<g><path style="opacity:0.908" fill="#d297ff" d="M 21.5,11.5 C 22.5,11.5 23.5,11.5 24.5,11.5C 26.8876,12.3485 29.2209,13.3485 31.5,14.5C 30.8333,14.5 30.5,14.8333 30.5,15.5C 29.8333,15.5 29.5,15.8333 29.5,16.5C 28.8333,16.5 28.5,16.8333 28.5,17.5C 27.8333,17.5 27.5,17.8333 27.5,18.5C 26.8333,18.5 26.5,18.8333 26.5,19.5C 25.8333,19.5 25.5,19.8333 25.5,20.5C 24.8333,20.5 24.5,20.8333 24.5,21.5C 23.8333,20.8333 23.1667,20.1667 22.5,19.5C 22.7678,17.901 22.4345,16.5676 21.5,15.5C 21.5,14.1667 21.5,12.8333 21.5,11.5 Z"/></g>
<g><path style="opacity:0.863" fill="#a836ff" d="M 24.5,11.5 C 27.8599,11.6159 31.1933,11.9492 34.5,12.5C 41.8165,13.7425 48.8165,15.7425 55.5,18.5C 53.5,18.5 51.5,18.5 49.5,18.5C 48.8333,18.5 48.1667,18.5 47.5,18.5C 47.1667,18.5 46.8333,18.5 46.5,18.5C 46.1667,18.5 45.8333,18.5 45.5,18.5C 45.1667,18.5 44.8333,18.5 44.5,18.5C 41.6741,17.0254 38.6741,15.6921 35.5,14.5C 34.8933,14.6236 34.56,14.9569 34.5,15.5C 34.1667,15.5 33.8333,15.5 33.5,15.5C 33.1583,14.6618 32.4916,14.3284 31.5,14.5C 29.2209,13.3485 26.8876,12.3485 24.5,11.5 Z"/></g>
<g><path style="opacity:0.911" fill="#cb9aff" d="M 31.5,14.5 C 32.4916,14.3284 33.1583,14.6618 33.5,15.5C 33.8333,18.1667 34.1667,18.1667 34.5,15.5C 34.56,14.9569 34.8933,14.6236 35.5,14.5C 38.6741,15.6921 41.6741,17.0254 44.5,18.5C 41.5,18.5 38.5,18.5 35.5,18.5C 34.596,19.209 34.2627,20.209 34.5,21.5C 34.5,22.1667 34.8333,22.5 35.5,22.5C 35.5,23.5 35.5,24.5 35.5,25.5C 34.5,25.5 33.5,25.5 32.5,25.5C 31.791,24.596 30.791,24.2627 29.5,24.5C 28.791,23.596 27.791,23.2627 26.5,23.5C 26.1667,23.5 25.8333,23.5 25.5,23.5C 25.1667,22.8333 24.8333,22.1667 24.5,21.5C 25.1667,21.5 25.5,21.1667 25.5,20.5C 26.1667,20.5 26.5,20.1667 26.5,19.5C 27.1667,19.5 27.5,19.1667 27.5,18.5C 28.1667,18.5 28.5,18.1667 28.5,17.5C 29.1667,17.5 29.5,17.1667 29.5,16.5C 30.1667,16.5 30.5,16.1667 30.5,15.5C 31.1667,15.5 31.5,15.1667 31.5,14.5 Z"/></g>
<g><path style="opacity:0.871" fill="#cfa2ff" d="M 35.5,18.5 C 38.5,18.5 41.5,18.5 44.5,18.5C 44.5,18.8333 44.5,19.1667 44.5,19.5C 43.8333,19.5 43.5,19.8333 43.5,20.5C 43.1583,21.3382 42.4916,21.6716 41.5,21.5C 40.8333,21.5 40.5,21.8333 40.5,22.5C 39.8333,22.5 39.5,22.8333 39.5,23.5C 38.8333,23.5 38.5,23.8333 38.5,24.5C 37.8826,24.6107 37.3826,24.944 37,25.5C 36.7679,24.2625 36.2679,23.2625 35.5,22.5C 34.8333,22.5 34.5,22.1667 34.5,21.5C 35.404,20.791 35.7373,19.791 35.5,18.5 Z"/></g>
<g><path style="opacity:0.79" fill="#983eff" d="M 49.5,18.5 C 51.5,18.5 53.5,18.5 55.5,18.5C 62.5837,19.1127 63.2503,21.446 57.5,25.5C 56.5084,25.6716 55.8417,25.3382 55.5,24.5C 55.9528,23.5416 56.6195,22.7083 57.5,22C 54.7689,20.8277 52.1022,19.6611 49.5,18.5 Z"/></g>
<g><path style="opacity:0.907" fill="#c49eff" d="M 11.5,19.5 C 11.8333,19.5 12.1667,19.5 12.5,19.5C 13.209,20.404 14.209,20.7373 15.5,20.5C 16.209,21.404 17.209,21.7373 18.5,21.5C 19.9002,22.1001 20.9002,23.1001 21.5,24.5C 20.8333,24.5 20.5,24.8333 20.5,25.5C 19.8333,25.5 19.5,25.8333 19.5,26.5C 18.8333,26.5 18.5,26.8333 18.5,27.5C 17.8333,27.5 17.5,27.8333 17.5,28.5C 16.8333,28.5 16.5,28.8333 16.5,29.5C 15.8333,29.5 15.5,29.8333 15.5,30.5C 15.1667,30.5 14.8333,30.5 14.5,30.5C 13.0552,27.0635 12.0552,23.3968 11.5,19.5 Z"/></g>
<g><path style="opacity:0.931" fill="#c59dfe" d="M 45.5,18.5 C 45.8333,18.5 46.1667,18.5 46.5,18.5C 46.3284,19.4916 46.6618,20.1583 47.5,20.5C 47.2322,22.099 47.5655,23.4324 48.5,24.5C 48.5,25.1667 48.5,25.8333 48.5,26.5C 45.6146,26.1936 42.9479,26.5269 40.5,27.5C 40.1667,27.5 39.8333,27.5 39.5,27.5C 38.8902,26.609 38.5569,25.609 38.5,24.5C 39.1667,24.5 39.5,24.1667 39.5,23.5C 40.1667,23.5 40.5,23.1667 40.5,22.5C 41.1667,22.5 41.5,22.1667 41.5,21.5C 42.4916,21.6716 43.1583,21.3382 43.5,20.5C 44.1667,20.5 44.5,20.1667 44.5,19.5C 45.1667,19.5 45.5,19.1667 45.5,18.5 Z"/></g>
<g><path style="opacity:0.903" fill="#c49aff" d="M 47.5,18.5 C 48.1667,18.5 48.8333,18.5 49.5,18.5C 52.1022,19.6611 54.7689,20.8277 57.5,22C 56.6195,22.7083 55.9528,23.5416 55.5,24.5C 53.7541,26.2516 51.7541,27.5849 49.5,28.5C 49.7678,26.901 49.4345,25.5676 48.5,24.5C 48.7678,22.901 48.4345,21.5676 47.5,20.5C 47.5,19.8333 47.5,19.1667 47.5,18.5 Z"/></g>
<g><path style="opacity:0.828" fill="#bfa1ff" d="M 25.5,23.5 C 25.8333,23.5 26.1667,23.5 26.5,23.5C 27.209,24.404 28.209,24.7373 29.5,24.5C 30.209,25.404 31.209,25.7373 32.5,25.5C 33.2625,26.2679 34.2625,26.7679 35.5,27C 34.944,27.3826 34.6107,27.8826 34.5,28.5C 33.8333,28.5 33.5,28.8333 33.5,29.5C 32.8333,29.5 32.5,29.8333 32.5,30.5C 31.8333,30.5 31.5,30.8333 31.5,31.5C 30.8333,31.5 30.5,31.8333 30.5,32.5C 29.8333,32.5 29.5,32.8333 29.5,33.5C 28.8333,33.5 28.5,33.8333 28.5,34.5C 27.1001,33.9002 26.1001,32.9002 25.5,31.5C 25.7678,29.901 25.4345,28.5676 24.5,27.5C 24.2322,25.901 24.5655,24.5676 25.5,23.5 Z"/></g>
<g><path style="opacity:0.685" fill="#7745ff" d="M 55.5,24.5 C 55.8417,25.3382 56.5084,25.6716 57.5,25.5C 53.9206,29.6235 49.9206,33.2901 45.5,36.5C 44.8333,36.5 44.1667,36.5 43.5,36.5C 44.5,35.1667 45.5,33.8333 46.5,32.5C 47.3382,32.1583 47.6716,31.4916 47.5,30.5C 48.1667,30.5 48.5,30.1667 48.5,29.5C 49.1667,29.5 49.5,29.1667 49.5,28.5C 51.7541,27.5849 53.7541,26.2516 55.5,24.5 Z"/></g>
<g><path style="opacity:0.868" fill="#b4a2ff" d="M 21.5,24.5 C 22.8999,25.0998 23.8999,26.0998 24.5,27.5C 24.2322,29.099 24.5655,30.4324 25.5,31.5C 25.7733,33.451 25.1066,34.951 23.5,36C 24.2524,36.6708 24.5858,37.5041 24.5,38.5C 23.8333,38.5 23.5,38.8333 23.5,39.5C 22.8333,39.5 22.5,39.8333 22.5,40.5C 21.8333,40.5 21.5,40.8333 21.5,41.5C 20.8333,41.5 20.5,41.8333 20.5,42.5C 19.8333,42.5 19.5,42.8333 19.5,43.5C 18.8333,43.5 18.5,43.8333 18.5,44.5C 18.1667,44.5 17.8333,44.5 17.5,44.5C 16.3678,41.4487 15.3678,38.4487 14.5,35.5C 14.5,34.8333 14.5,34.1667 14.5,33.5C 17.1667,33.1667 17.1667,32.8333 14.5,32.5C 14.5,32.1667 14.5,31.8333 14.5,31.5C 15.1667,31.5 15.5,31.1667 15.5,30.5C 16.1667,30.5 16.5,30.1667 16.5,29.5C 17.1667,29.5 17.5,29.1667 17.5,28.5C 18.1667,28.5 18.5,28.1667 18.5,27.5C 19.1667,27.5 19.5,27.1667 19.5,26.5C 20.1667,26.5 20.5,26.1667 20.5,25.5C 21.1667,25.5 21.5,25.1667 21.5,24.5 Z"/></g>
<g><path style="opacity:0.917" fill="#bca1ff" d="M 40.5,27.5 C 42.9479,26.5269 45.6146,26.1936 48.5,26.5C 48.3284,27.4916 48.6618,28.1583 49.5,28.5C 49.5,29.1667 49.1667,29.5 48.5,29.5C 46.7761,29.4607 46.4427,29.794 47.5,30.5C 47.6716,31.4916 47.3382,32.1583 46.5,32.5C 44.0521,31.5269 41.3854,31.1936 38.5,31.5C 38.5,30.8333 38.1667,30.5 37.5,30.5C 37.2852,28.8212 37.9519,27.8212 39.5,27.5C 42.1432,28.5069 42.4765,28.5069 40.5,27.5 Z"/></g>
<g><path style="opacity:0.805" fill="#8345ff" d="M 7.5,14.5 C 8.16667,14.5 8.83333,14.5 9.5,14.5C 10.1667,15.5 10.8333,16.5 11.5,17.5C 11.5,18.1667 11.5,18.8333 11.5,19.5C 12.0552,23.3968 13.0552,27.0635 14.5,30.5C 14.5,30.8333 14.5,31.1667 14.5,31.5C 14.5,31.8333 14.5,32.1667 14.5,32.5C 14.5,32.8333 14.5,33.1667 14.5,33.5C 14.5,34.1667 14.5,34.8333 14.5,35.5C 14.1583,36.3382 13.4916,36.6716 12.5,36.5C 10.5186,29.2407 8.85189,21.9073 7.5,14.5 Z"/></g>
<g><path style="opacity:0.85" fill="#b5a6ff" d="M 34.5,28.5 C 35.7777,28.7822 36.7777,29.4489 37.5,30.5C 37.2322,32.099 37.5655,33.4324 38.5,34.5C 38.2322,36.099 38.5655,37.4324 39.5,38.5C 39.1583,39.3382 38.4916,39.6716 37.5,39.5C 36.5,38.1667 35.5,38.1667 34.5,39.5C 33.8333,39.5 33.5,39.1667 33.5,38.5C 32.791,37.596 31.791,37.2627 30.5,37.5C 29.7375,36.7321 28.7375,36.2321 27.5,36C 28.056,35.6174 28.3893,35.1174 28.5,34.5C 29.1667,34.5 29.5,34.1667 29.5,33.5C 30.1667,33.5 30.5,33.1667 30.5,32.5C 31.1667,32.5 31.5,32.1667 31.5,31.5C 32.1667,31.5 32.5,31.1667 32.5,30.5C 33.1667,30.5 33.5,30.1667 33.5,29.5C 34.1667,29.5 34.5,29.1667 34.5,28.5 Z"/></g>
<g><path style="opacity:0.904" fill="#af9fff" d="M 38.5,31.5 C 41.3854,31.1936 44.0521,31.5269 46.5,32.5C 45.5,33.8333 44.5,35.1667 43.5,36.5C 41.9382,36.7329 40.6049,37.3995 39.5,38.5C 39.7678,36.901 39.4345,35.5676 38.5,34.5C 38.5,33.5 38.5,32.5 38.5,31.5 Z"/></g>
<g><path style="opacity:0.909" fill="#a5a8ff" d="M 30.5,37.5 C 31.209,38.404 32.209,38.7373 33.5,38.5C 33.5,39.1667 33.8333,39.5 34.5,39.5C 35.5,39.5 36.5,39.5 37.5,39.5C 35.8333,43.1667 33.1667,45.8333 29.5,47.5C 29.7678,45.901 29.4345,44.5676 28.5,43.5C 28.7678,41.901 28.4345,40.5676 27.5,39.5C 27.8212,37.9519 28.8212,37.2852 30.5,37.5 Z"/></g>
<g><path style="opacity:0.709" fill="#5356ff" d="M 14.5,35.5 C 15.3678,38.4487 16.3678,41.4487 17.5,44.5C 17.5,45.1667 17.8333,45.5 18.5,45.5C 18.5,45.8333 18.5,46.1667 18.5,46.5C 17.6554,47.6715 16.9887,49.0048 16.5,50.5C 14.877,46.0223 13.5437,41.3556 12.5,36.5C 13.4916,36.6716 14.1583,36.3382 14.5,35.5 Z"/></g>
<g><path style="opacity:0.779" fill="#a1abff" d="M 27.5,39.5 C 27.2322,41.099 27.5655,42.4324 28.5,43.5C 28.2322,45.099 28.5655,46.4324 29.5,47.5C 29.5,48.1667 29.1667,48.5 28.5,48.5C 25.8333,48.8333 25.8333,49.1667 28.5,49.5C 28.5,49.8333 28.5,50.1667 28.5,50.5C 28.1667,50.5 27.8333,50.5 27.5,50.5C 24.5,50.5 21.5,50.5 18.5,50.5C 18.2627,49.209 18.596,48.209 19.5,47.5C 23.5,47.1667 23.5,46.8333 19.5,46.5C 19.1667,46.5 18.8333,46.5 18.5,46.5C 18.5,46.1667 18.5,45.8333 18.5,45.5C 18.5,45.1667 18.5,44.8333 18.5,44.5C 19.1667,44.5 19.5,44.1667 19.5,43.5C 20.1667,43.5 20.5,43.1667 20.5,42.5C 21.1667,42.5 21.5,42.1667 21.5,41.5C 22.1667,41.5 22.5,41.1667 22.5,40.5C 23.1667,40.5 23.5,40.1667 23.5,39.5C 24.1667,39.5 24.5,39.1667 24.5,38.5C 25.1174,38.3893 25.6174,38.056 26,37.5C 26.2784,38.4158 26.7784,39.0825 27.5,39.5 Z"/></g>
<g><path style="opacity:0.709" fill="#4d5aff" d="M 43.5,36.5 C 44.1667,36.5 44.8333,36.5 45.5,36.5C 41.1667,41.5 36.5,46.1667 31.5,50.5C 30.5,50.5 29.5,50.5 28.5,50.5C 28.5,50.1667 28.5,49.8333 28.5,49.5C 28.5,49.1667 28.5,48.8333 28.5,48.5C 29.1667,48.5 29.5,48.1667 29.5,47.5C 33.1667,45.8333 35.8333,43.1667 37.5,39.5C 38.4916,39.6716 39.1583,39.3382 39.5,38.5C 40.6049,37.3995 41.9382,36.7329 43.5,36.5 Z"/></g>
<g><path style="opacity:0.806" fill="#2d68ff" d="M 18.5,46.5 C 18.8333,46.5 19.1667,46.5 19.5,46.5C 19.5,46.8333 19.5,47.1667 19.5,47.5C 18.596,48.209 18.2627,49.209 18.5,50.5C 18.8781,53.0221 19.7114,55.3554 21,57.5C 23.3722,55.2968 25.5389,52.9635 27.5,50.5C 27.8333,50.5 28.1667,50.5 28.5,50.5C 29.5,50.5 30.5,50.5 31.5,50.5C 28.0289,54.4966 24.1955,58.1633 20,61.5C 17.7581,58.2068 16.5915,54.5401 16.5,50.5C 16.9887,49.0048 17.6554,47.6715 18.5,46.5 Z"/></g>
<g><path style="opacity:1" fill="#8ba8ff" d="M 18.5,50.5 C 21.5,50.5 24.5,50.5 27.5,50.5C 25.5389,52.9635 23.3722,55.2968 21,57.5C 19.7114,55.3554 18.8781,53.0221 18.5,50.5 Z"/></g>
</svg>
